<?xml version="1.0" encoding="UTF-8"?><svg id="b" xmlns="http://www.w3.org/2000/svg" viewBox="0 0 141.73 141.73"><defs><style>.d{fill:#fff;}.e{fill:#121310;}.f{fill:#c8251d;}</style></defs><g id="c"><g><path class="f" d="m70.86,0C31.73,0,0,31.73,0,70.87s31.73,70.86,70.86,70.86,70.87-31.73,70.87-70.86S110,0,70.86,0Zm36.48,55.25l-36.48,33.87-27.79-25.82v-20.55h12.59v15.13h8.88v-15.13h12.59v15.13h8.88v-15.13h9.85v7.64c0,1.33,1.13,2.42,2.54,2.42h8.94v2.44Z"/><g><path class="e" d="m114.92,46.9l-10.09-9.58c-2.19-2.07-3.53-3.35-5.59-3.01h-13.23v-8.8h-8.88v8.8h-12.59v-8.8h-8.88v8.8h-12.59v-8.8h-8.89v29.55l-8.67-8.06v59.13c0,5.57,4.61,10.09,10.29,10.09h70.13c5.67,0,10.29-4.52,10.29-10.09v-56.24c0-1.12-.47-2.19-1.3-2.99Zm-7.58,59.23c0,.9-.65,1.66-1.41,1.66H35.8c-.77,0-1.41-.76-1.41-1.66v-39.08l36.47,33.86,36.48-33.86v39.08Zm0-50.88l-36.48,33.87-27.79-25.82v-20.55h12.59v15.13h8.88v-15.13h12.59v15.13h8.88v-15.13h9.85v7.64c0,1.33,1.13,2.42,2.54,2.42h8.94v2.44Z"/><path class="d" d="m107.34,52.81v2.44l-36.48,33.87-27.79-25.82v-20.55h12.59v15.13h8.88v-15.13h12.59v15.13h8.88v-15.13h9.85v7.64c0,1.33,1.13,2.42,2.54,2.42h8.94Z"/></g></g></g></svg>